<svg width="301" height="301" viewBox="0 0 301 301" fill="none" xmlns="http://www.w3.org/2000/svg">
<path fill-rule="evenodd" clip-rule="evenodd" d="M157.616 0L139.338 20.8276L143.4 48.259L129.691 65.8488L105.828 78.4425L97.0641 71.9009L95.9165 53.8469L91.6953 74.7243L99.7355 81.6579L76.3803 93.9836L71.3031 88.3901L56.0714 96.518L18.5 57.9108L36.6615 124.965L50.37 117.854L53.0251 125.981L58.1023 123.441V158.539L48.4556 163.065L31.7008 155.525L48.4556 169.16L58.1023 165.651V208.784L46.941 197.246L19.5154 236.967L48.5499 222.617L60.2017 235.36L84.2852 223.593L98.0271 230.299L96.5832 241.73L81.4575 252.11L101.795 244.872L104.107 233.266L120.398 241.295L142.384 274.314L157.108 264.662L148.265 301L180.463 253.539H155.48L184.017 239.263L193.113 246.263L194.261 264.317L198.482 243.44L190.11 236.215L211.942 225.293L236.995 237.392L248.646 224.649L277.681 238.999L250.255 199.278L240.882 209.8V165.096L250.396 160.59L267.151 168.129L250.396 154.494L240.882 157.985V122.933L246.975 125.981L249.63 117.854L263.339 124.965L281.5 57.9108L243.929 96.518L228.697 88.3901L223.112 93.978L197.726 80.3018L199.084 68.5052L214.209 58.1251L193.872 65.3631L191.56 76.9688L171.682 66.2889L152.539 25.3995L157.616 0ZM101.148 135.857L148.751 67.0246C149.696 65.6585 151.71 65.6585 152.655 67.0246L200.258 135.857C201.068 137.027 200.679 138.644 199.427 139.315L151.823 164.85C151.123 165.225 150.283 165.225 149.583 164.85L101.979 139.315C100.727 138.644 100.338 137.027 101.148 135.857ZM65.8931 158.088L94.3678 145.108C95.0607 144.792 95.8626 144.829 96.5244 145.206L146.532 173.7C147.275 174.123 147.734 174.914 147.734 175.771V240.613C147.734 242.747 145.15 243.805 143.661 242.28L65.179 161.924C64.0257 160.743 64.3926 158.772 65.8931 158.088ZM144.17 67.18L94.0158 137.004C93.801 137.303 93.5199 137.548 93.1947 137.72L72.7974 148.485C70.4125 149.744 68.111 146.678 69.9768 144.728L144.17 67.18ZM236.107 157.493L207.632 144.513C206.939 144.197 206.137 144.233 205.476 144.61L155.468 173.104C154.725 173.527 154.266 174.318 154.266 175.175V240.017C154.266 242.152 156.85 243.209 158.339 241.684L236.821 161.328C237.974 160.148 237.607 158.177 236.107 157.493ZM157.83 66.5844L207.984 136.408C208.199 136.707 208.48 136.952 208.805 137.124L229.203 147.89C231.587 149.149 233.889 146.083 232.023 144.132L157.83 66.5844Z" fill="white"/>
<path d="M155.351 134.466C153.207 136.322 151.591 137.25 150.503 137.25C149.415 137.25 147.799 136.322 145.655 134.466C143.511 132.61 142.183 131.106 141.671 129.954C141.319 129.282 141.143 127.186 141.143 123.666V117.81C141.143 114.45 141.351 112.274 141.767 111.282C142.215 110.29 143.511 108.866 145.655 107.01C147.799 105.154 149.415 104.226 150.503 104.226C151.591 104.226 153.191 105.154 155.303 107.01C157.415 108.866 158.759 110.37 159.335 111.522C159.687 112.258 159.863 114.354 159.863 117.81V123.666C159.863 127.026 159.639 129.202 159.191 130.194C158.775 131.186 157.495 132.61 155.351 134.466ZM149.063 130.29C149.639 130.77 150.119 131.01 150.503 131.01C150.887 131.01 151.351 130.77 151.895 130.29C152.471 129.81 152.871 129.378 153.095 128.994C153.319 128.578 153.431 126.802 153.431 123.666V117.81C153.431 115.154 153.335 113.506 153.143 112.866C152.983 112.226 152.599 111.666 151.991 111.186C151.415 110.706 150.919 110.466 150.503 110.466C150.119 110.466 149.623 110.706 149.015 111.186C148.439 111.666 148.055 112.162 147.863 112.674C147.671 113.154 147.575 114.866 147.575 117.81V123.666C147.575 126.77 147.687 128.53 147.911 128.946C148.135 129.362 148.519 129.81 149.063 130.29Z" fill="white"/>
</svg>
