<svg width="151" height="151" viewBox="0 0 151 151" fill="none" xmlns="http://www.w3.org/2000/svg">
<circle cx="75.066" cy="75.066" r="72.5" stroke="black" stroke-width="5"/>
<path fill-rule="evenodd" clip-rule="evenodd" d="M29.3336 125.041L59.032 95.3426L60.5914 92.2239C61.451 90.5048 59.6272 88.6811 57.9081 89.5406L54.7894 91.1L25.0909 120.798L23.5316 123.917C22.672 125.636 24.4957 127.46 26.2148 126.6L29.3336 125.041Z" fill="black"/>
<path d="M104.88 43.3504C105.909 43.3999 106.732 44.2229 106.782 45.2519L106.883 47.3626C106.919 48.1054 106.54 48.8066 105.899 49.1832L103.295 50.7127C102.509 51.174 101.511 51.0464 100.867 50.4024L99.7296 49.2646C99.0856 48.6206 98.958 47.6228 99.4193 46.8375L100.949 44.2336C101.325 43.5924 102.027 43.2131 102.769 43.2488L104.88 43.3504Z" fill="black"/>
<path fill-rule="evenodd" clip-rule="evenodd" d="M90.0888 28.7317C90.2838 27.7395 90.6155 26.8171 91.0587 25.977C88.8149 22.2641 89.2017 17.4069 92.2191 14.0885L81.3215 11.4848C74.8012 9.92701 68.1387 12.1343 63.8228 16.8772L66.2272 20.2653L62.9364 17.9298C62.0546 19.0625 61.2975 20.316 60.6922 21.6768L53.1686 38.5915L54.6039 39.7039L52.549 39.9845L48.939 48.1007C46.6157 53.324 46.9458 59.2313 49.6054 64.0775C50.6531 63.5893 51.9648 63.5408 53.3492 63.891L53.3691 63.8711L63.1425 66.5206L68.5571 61.106C71.6379 59.2207 75.7185 59.6113 78.3851 62.2779L80.0968 63.9896L82.2697 64.9919L51.0878 96.0837L53.9122 98.9162L85.1136 67.8049L86.1424 70.0352L88.6535 72.5463C91.1981 75.0908 91.6702 78.923 90.0698 81.9454L84.2398 87.7754L87.0868 98.4005L87.0185 98.4689C87.647 100.36 87.5044 102.139 86.4649 103.262C91.0844 105.228 96.4281 105.217 101.162 102.996L110.201 98.7556L111.637 94.7102L114.187 96.8858L126.03 91.3302L124.848 87.9932L126.644 91.0423L127.518 90.6321C135.075 87.0869 139.204 78.8111 137.49 70.6414L134.772 57.6822C131.523 60.2281 127.06 60.4804 123.57 58.439C122.722 58.8909 121.788 59.2286 120.783 59.4261L119.256 59.7262C115.987 60.3686 112.613 59.3408 110.257 56.9849L109.397 56.1249L106.539 50.1684L106.535 50.1699C105.801 50.445 104.973 50.2657 104.419 49.7112L100.421 45.7132C99.8664 45.1587 99.6871 44.3315 99.9622 43.5972L100.066 43.3211L93.3901 40.1182L92.53 39.2581C90.1742 36.9023 89.1463 33.528 89.7887 30.2589L90.0888 28.7317Z" fill="black"/>
<path d="M130.154 65.8076L130.944 65.1936L130.154 65.8076ZM106.113 96.9203L105.707 97.8341L106.113 96.9203ZM91.617 98.688L92.263 97.9246L92.263 97.9246L91.617 98.688ZM87.0208 98.3345L86.0208 98.3345C86.0208 98.43 86.0345 98.525 86.0615 98.6166L87.0208 98.3345ZM86.3137 103.284L86.7076 102.365L86.7076 102.365L86.3137 103.284ZM110.002 98.688L110.506 99.5518C110.716 99.4294 110.874 99.2348 110.95 99.0043L110.002 98.688ZM111.77 94.0918L112.477 93.3847C112.242 93.1501 111.906 93.0471 111.58 93.1099C111.255 93.1726 110.981 93.3929 110.85 93.6979L111.77 94.0918ZM114.244 96.5667L113.537 97.2738C113.832 97.5686 114.279 97.6496 114.658 97.4771L114.244 96.5667ZM125.912 91.2634L126.325 92.1738C126.791 91.962 127.022 91.4327 126.86 90.9472L125.912 91.2634ZM124.851 88.0814L125.651 87.4814C125.357 87.0891 124.821 86.968 124.387 87.1957C123.952 87.4233 123.747 87.9324 123.902 88.3977L124.851 88.0814ZM126.972 90.9099L126.172 91.5099C126.456 91.8876 126.965 92.0157 127.393 91.8171L126.972 90.9099ZM137.23 66.3757C137.031 65.8604 136.453 65.6039 135.937 65.8027C135.422 66.0015 135.166 66.5803 135.364 67.0956L137.23 66.3757ZM135.65 66.0107C135.196 66.2834 134.376 66.5864 133.492 66.5582C132.653 66.5314 131.734 66.2103 130.944 65.1936L129.365 66.4215C130.554 67.9504 132.051 68.5132 133.428 68.5571C134.76 68.5997 135.955 68.1602 136.679 67.7257L135.65 66.0107ZM130.944 65.1936C130.856 65.0809 130.769 64.9759 130.684 64.8861C130.615 64.8126 130.489 64.6851 130.323 64.5896C130.242 64.5432 130.065 64.453 129.825 64.4425C129.531 64.4297 129.217 64.5431 128.996 64.8004C128.815 65.0103 128.766 65.234 128.75 65.3372C128.732 65.4547 128.735 65.5568 128.74 65.6227C128.756 65.8551 128.833 66.1225 128.899 66.3324C128.975 66.5726 129.078 66.8595 129.196 67.1752C129.433 67.8068 129.753 68.6036 130.096 69.4609C130.442 70.3234 130.814 71.255 131.164 72.174C131.883 74.0614 132.446 75.7449 132.541 76.6504C132.564 76.8729 132.546 76.9485 132.55 76.9341C132.559 76.8977 132.662 76.6114 133.012 76.5189C133.257 76.4544 133.371 76.5636 133.212 76.4808C133.088 76.4161 132.882 76.2762 132.577 76.012L131.267 77.5234C131.625 77.8338 131.966 78.0861 132.286 78.2534C132.571 78.4026 133.026 78.5836 133.522 78.4528C134.124 78.2941 134.388 77.8034 134.483 77.4466C134.572 77.1118 134.562 76.751 134.53 76.4431C134.403 75.2273 133.729 73.2869 133.033 71.462C132.676 70.5248 132.298 69.5781 131.953 68.7171C131.606 67.8508 131.296 67.0787 131.069 66.4729C130.955 66.1698 130.867 65.9209 130.807 65.7302C130.737 65.5093 130.733 65.4506 130.735 65.4842C130.736 65.5004 130.74 65.5607 130.727 65.6447C130.716 65.7144 130.677 65.9129 130.511 66.1062C130.303 66.3469 130.009 66.4524 129.738 66.4406C129.522 66.4312 129.374 66.3511 129.327 66.3239C129.228 66.2671 129.189 66.2156 129.229 66.2581C129.254 66.2843 129.298 66.3353 129.365 66.4215L130.944 65.1936ZM132.577 76.012C131.029 74.6705 129.522 74.3961 128.184 74.6725C126.945 74.9285 125.93 75.6553 125.371 76.0149C125.219 76.1124 125.112 76.1776 125.03 76.22C124.937 76.2682 124.946 76.2495 125.02 76.2395C125.13 76.2246 125.364 76.2356 125.57 76.4163C125.734 76.5597 125.751 76.7019 125.738 76.6463C125.711 76.5264 125.692 76.1829 125.764 75.4216C125.832 74.6969 125.972 73.6955 126.192 72.3308L124.217 72.0123C123.996 73.3876 123.848 74.4412 123.773 75.233C123.701 75.9881 123.682 76.6223 123.787 77.088C123.841 77.3252 123.957 77.6621 124.252 77.9205C124.59 78.2162 124.986 78.2624 125.289 78.2213C125.557 78.185 125.79 78.0786 125.95 77.996C126.12 77.9075 126.295 77.7987 126.452 77.6973C127.13 77.2614 127.795 76.795 128.589 76.6312C129.284 76.4877 130.163 76.5669 131.267 77.5234L132.577 76.012ZM126.192 72.3308C126.303 71.6421 126.38 71.1177 126.425 70.744C126.447 70.5586 126.463 70.3957 126.47 70.2618C126.473 70.1953 126.475 70.1222 126.473 70.0496C126.471 69.9958 126.465 69.865 126.421 69.7204C126.4 69.6523 126.346 69.4928 126.209 69.3361C126.044 69.147 125.755 68.9672 125.382 68.9906C125.073 69.0101 124.869 69.1618 124.789 69.2282C124.697 69.3048 124.637 69.382 124.606 69.4247C124.5 69.57 124.429 69.7427 124.395 69.827C124.305 70.0508 124.195 70.3807 124.074 70.7668C123.827 71.5515 123.492 72.7031 123.102 74.0268C122.71 75.3571 122.259 76.8746 121.776 78.4124C120.8 81.5156 119.72 84.6107 118.754 86.4165C118.516 86.8631 118.302 87.1958 118.119 87.4193C117.916 87.6678 117.839 87.6733 117.904 87.6528C117.96 87.6351 118.056 87.6227 118.165 87.6543C118.268 87.6839 118.315 87.7331 118.313 87.7314C118.287 87.7041 118.169 87.5429 118.03 87.0832L116.116 87.6655C116.286 88.2222 116.516 88.746 116.869 89.1151C117.058 89.3115 117.303 89.4868 117.61 89.5757C117.924 89.6664 118.233 89.6464 118.507 89.5596C119.008 89.4011 119.392 89.0227 119.668 88.6842C119.965 88.3208 120.249 87.8635 120.518 87.3598C121.585 85.365 122.714 82.0961 123.684 79.0121C124.173 77.4563 124.628 75.9245 125.02 74.592C125.415 73.2531 125.742 72.1286 125.982 71.3665C126.103 70.9793 126.193 70.718 126.25 70.5758C126.29 70.4772 126.28 70.5231 126.222 70.6034C126.203 70.6298 126.153 70.6946 126.072 70.7628C126.002 70.8207 125.808 70.9678 125.507 70.9867C125.142 71.0097 124.861 70.8333 124.702 70.6518C124.572 70.5027 124.523 70.3549 124.508 70.3027C124.487 70.2367 124.48 70.1856 124.478 70.1643C124.475 70.1396 124.474 70.1235 124.474 70.1196C124.474 70.113 124.474 70.1232 124.472 70.1581C124.469 70.2271 124.459 70.3394 124.439 70.5069C124.399 70.8389 124.327 71.3309 124.217 72.0123L126.192 72.3308ZM118.03 87.0832C117.723 86.0749 117.498 85.2915 117.327 84.6954C117.161 84.1178 117.033 83.671 116.93 83.3866C116.886 83.2667 116.808 83.0588 116.678 82.8836C116.616 82.8004 116.45 82.5943 116.15 82.4917C115.768 82.3608 115.417 82.4745 115.192 82.6378C115.013 82.7682 114.914 82.9253 114.873 82.9939C114.824 83.0776 114.787 83.1596 114.762 83.2205C114.712 83.3409 114.664 83.4847 114.622 83.611C114.282 84.6305 113.576 86.9071 110.873 88.6561L111.959 90.3352C115.267 88.1951 116.152 85.3451 116.519 84.2434C116.565 84.1045 116.591 84.0301 116.609 83.9875C116.618 83.9669 116.613 83.9812 116.595 84.0121C116.586 84.0279 116.517 84.1471 116.368 84.2553C116.174 84.3965 115.853 84.504 115.502 84.3838C115.234 84.2919 115.1 84.1134 115.072 84.0758C115.009 83.9917 115.005 83.9468 115.05 84.07C115.124 84.2718 115.228 84.6315 115.405 85.2472C115.576 85.8443 115.804 86.6408 116.116 87.6655L118.03 87.0832ZM110.873 88.6561C109.167 89.7599 108.324 91.0942 107.978 92.4459C107.644 93.7503 107.795 94.9955 107.905 95.8542C107.965 96.321 108.004 96.6144 108.003 96.8326C108.001 97.0873 107.94 96.8919 108.158 96.7182C108.366 96.5527 108.496 96.671 108.125 96.5939C107.805 96.5271 107.298 96.3526 106.519 96.0065L105.707 97.8341C106.519 98.195 107.183 98.4404 107.717 98.5518C108.202 98.6528 108.87 98.7076 109.404 98.2825C109.948 97.8491 110 97.1979 110.003 96.8463C110.005 96.4582 109.939 95.9949 109.889 95.5999C109.778 94.735 109.686 93.8367 109.915 92.9425C110.132 92.0955 110.66 91.1759 111.959 90.3352L110.873 88.6561ZM106.519 96.0065C103.016 94.4494 100.333 95.5121 98.8537 95.6601C98.1437 95.7311 97.7076 95.6392 97.2629 95.208C96.7252 94.6866 96.0994 93.5921 95.4012 91.3229L93.4897 91.9111C94.2057 94.2381 94.9499 95.751 95.8706 96.6438C96.8844 97.6268 97.995 97.7559 99.0528 97.6501C101.109 97.4445 102.846 96.5627 105.707 97.8341L106.519 96.0065ZM95.4012 91.3229C95.0515 90.1862 94.7957 89.4312 94.6096 89.0248C94.5625 88.9221 94.5009 88.7986 94.4233 88.686C94.3852 88.6307 94.3201 88.5439 94.2252 88.4594C94.1423 88.3857 93.9399 88.2265 93.6307 88.1946C93.256 88.1559 92.9548 88.3231 92.7751 88.5131C92.6263 88.6703 92.5619 88.8364 92.5355 88.9131C92.48 89.0745 92.4654 89.2325 92.4592 89.3187C92.4332 89.6782 92.4743 90.2838 92.5223 90.9159C92.5737 91.592 92.6414 92.3847 92.6962 93.2286C92.8081 94.9516 92.8482 96.6795 92.6229 97.7195C92.569 97.9684 92.5093 98.129 92.4601 98.2213C92.4097 98.3157 92.4055 98.2744 92.4926 98.2305C92.7554 98.0982 92.7851 98.3665 92.263 97.9246L90.9711 99.4514C91.598 99.9819 92.4894 100.471 93.3917 100.017C93.7985 99.8123 94.0584 99.4743 94.2247 99.1625C94.3922 98.8486 94.5017 98.4934 94.5776 98.1429C94.8716 96.7854 94.8011 94.7788 94.692 93.099C94.6363 92.2413 94.566 91.4154 94.5166 90.7644C94.4638 90.0692 94.4413 89.6391 94.454 89.4627C94.4574 89.4149 94.4589 89.4701 94.4268 89.5634C94.4122 89.606 94.3613 89.7465 94.2281 89.8874C94.064 90.0609 93.7803 90.2207 93.4252 90.184C93.1357 90.1541 92.9551 90.0064 92.8961 89.954C92.8251 89.8909 92.7863 89.8352 92.7768 89.8213C92.7562 89.7916 92.7612 89.792 92.7911 89.8574C92.913 90.1236 93.1323 90.7496 93.4897 91.9111L95.4012 91.3229ZM92.263 97.9246C91.3033 97.1126 90.4764 96.5654 89.7575 96.2423C89.0451 95.9222 88.3557 95.7858 87.7231 95.9264C87.0525 96.0754 86.6017 96.5005 86.3426 96.9787C86.0979 97.4304 86.0208 97.9263 86.0208 98.3345L88.0208 98.3345C88.0208 98.1534 88.0586 98.0099 88.1012 97.9313C88.1294 97.8792 88.1382 97.883 88.157 97.8788C88.2139 97.8661 88.4437 97.8446 88.9378 98.0666C89.4254 98.2857 90.0923 98.7078 90.9711 99.4514L92.263 97.9246ZM86.0615 98.6166C86.3472 99.5881 86.6333 100.928 86.6307 101.876C86.6293 102.397 86.5377 102.556 86.5485 102.542C86.5865 102.493 86.6733 102.426 86.7825 102.409C86.861 102.397 86.8518 102.427 86.7076 102.365L85.9198 104.203C86.2706 104.354 86.6731 104.451 87.0909 104.385C87.5394 104.315 87.893 104.076 88.1361 103.759C88.5572 103.209 88.6292 102.454 88.6307 101.882C88.634 100.644 88.2837 99.0843 87.9802 98.0523L86.0615 98.6166ZM86.7076 102.365C86.5384 102.293 86.3587 102.224 86.1986 102.19C86.1552 102.18 86.0895 102.168 86.0121 102.163C85.965 102.159 85.7781 102.146 85.564 102.228C85.4438 102.275 85.2529 102.375 85.1029 102.585C84.9397 102.813 84.8979 103.069 84.9213 103.281C84.9582 103.617 85.1516 103.824 85.1802 103.856C85.2895 103.978 85.4117 104.056 85.4585 104.085C85.5272 104.129 85.6016 104.17 85.6756 104.207C85.8252 104.283 86.0125 104.364 86.2326 104.447C87.1121 104.777 88.6605 105.184 90.812 105.299C95.1316 105.531 101.865 104.592 110.506 99.5518L109.498 97.8243C101.168 102.683 94.8199 103.512 90.9194 103.302C88.9608 103.197 87.6145 102.83 86.9363 102.575C86.7669 102.511 86.6482 102.458 86.5773 102.422C86.5412 102.404 86.5267 102.395 86.5282 102.396C86.529 102.396 86.5407 102.403 86.5592 102.418C86.5729 102.428 86.6178 102.463 86.6697 102.521C86.6863 102.539 86.8733 102.735 86.9093 103.062C86.9321 103.27 86.8913 103.522 86.7304 103.747C86.5826 103.954 86.3953 104.052 86.2801 104.096C86.0761 104.174 85.9048 104.16 85.8788 104.158C85.8225 104.154 85.7834 104.146 85.7723 104.144C85.7412 104.137 85.7797 104.143 85.9198 104.203L86.7076 102.365ZM110.95 99.0043C111.504 97.3451 112.34 95.2997 112.689 94.4858L110.85 93.6979C110.492 94.5339 109.631 96.6369 109.053 98.3718L110.95 99.0043ZM111.062 94.7989L113.537 97.2738L114.952 95.8596L112.477 93.3847L111.062 94.7989ZM114.658 97.4771L126.325 92.1738L125.498 90.353L113.831 95.6563L114.658 97.4771ZM126.86 90.9472L125.8 87.7652L123.902 88.3977L124.963 91.5796L126.86 90.9472ZM124.051 88.6814L126.172 91.5099L127.772 90.3099L125.651 87.4814L124.051 88.6814ZM127.393 91.8171C130.183 90.5235 133.987 87.7188 136.429 83.4541C138.897 79.1447 139.94 73.3981 137.23 66.3757L135.364 67.0956C137.852 73.5435 136.869 78.6614 134.694 82.4602C132.493 86.3036 129.036 88.8508 126.552 90.0026L127.393 91.8171Z" fill="#AA0000"/>
<path d="M129.442 64.388L129.738 64.693L129.24 64.9649L129.24 63.8277L129.248 63.8147L129.31 64.1345L129.338 64.281L129.442 64.388Z" fill="#D9D9D9" stroke="#AA0000"/>
<path d="M135.952 65.5249L136.039 64.9167L136.202 65.2707L136.21 65.2869L136.218 65.3025L136.417 65.6652L136.569 66.0591L135.841 66.0156L135.791 66.0126L135.74 66.0197L135.664 66.0306L135.867 65.7409L135.936 65.6431L135.952 65.5249Z" fill="#D9D9D9" stroke="#AA0000"/>
<path d="M126.265 66.1612L126.265 67.5754L126.619 68.6361L126.47 70.2255L124.444 69.6827L125.205 67.9289L126.265 66.1612Z" fill="#AA0000"/>
<path d="M117.073 79.5961L116.719 81.3639L117.073 82.4246L117.426 84.1923L117.78 85.253L113.184 86.3137L114.244 83.8388L114.952 82.4246L116.012 80.6568L117.073 79.5961Z" fill="#AA0000"/>
<path d="M94.5543 85.5607L94.4455 86.6672L94.4455 88.0814L94.799 89.8492L95.2739 90.8397L95.8597 93.0312L96.5668 94.4454L96.9203 95.506L98.3345 96.2132L95.8596 96.5668L91.9705 97.6275L91.9705 96.9203L92.6776 93.3848L92.6776 91.2635L92.324 88.7886L93.0311 87.3744L93.5929 86.522L94.5543 85.5607Z" fill="#AA0000"/>
<path d="M85.4388 91.8026L85.9602 93.0312L86.6673 94.4454L87.728 94.7989L88.6703 95.4433L89.1917 95.9647L89.8989 95.9647L90.2524 96.3183L90.9595 96.3183L92.0202 96.6718L93.0313 97.2738L86.0464 98.0672L85.9602 95.1525L85.6066 93.3848L85.6067 92.6776L85.4388 91.8026Z" fill="#AA0000"/>
<path d="M84.1318 102.354L84.8995 102.577L85.6066 101.87L86.3137 101.163L86.6673 100.102L87.0208 101.163L85.9601 104.345L84.8995 103.991L82.7782 102.577L84.1318 102.354Z" fill="#AA0000"/>
<path d="M115.35 100.259C115.761 101.037 114.982 102.074 114.528 102.074C114.074 102.074 113.294 100.518 113.5 100C113.294 98.9629 114.528 96.6297 114.733 97.1482C114.939 97.6667 114.939 99.4815 115.35 100.259Z" fill="#AA0000"/>
<path d="M131.44 69.3961C131.643 69.942 131.739 70.5358 131.722 71.1333C131.704 71.7307 131.574 72.3164 131.34 72.8466C131.106 73.3768 130.775 73.8379 130.371 74.1954C129.967 74.553 129.501 74.7978 129.008 74.9116C128.514 75.0254 128.006 75.0053 127.521 74.8527C127.036 74.7002 126.587 74.4191 126.206 74.0305C125.826 73.6419 125.525 73.1558 125.325 72.6084C125.126 72.061 125.033 71.4665 125.053 70.8692L126.5 69C126.487 69.3753 126.142 71.1333 126.463 72.0155C126.589 72.3594 126.778 72.6648 127.017 72.909C127.256 73.1531 127.538 73.3297 127.843 73.4256C128.148 73.5214 128.467 73.5341 128.777 73.4625C129.087 73.391 129.38 73.2372 129.633 73.0126C129.887 72.7879 130.095 72.4983 130.242 72.1651C130.389 71.832 130.471 71.4641 130.482 71.0887C130.493 70.7133 130.433 70.3402 130.305 69.9973L131.44 69.3961Z" fill="#AA0000"/>
<path d="M125 73.5L129.5 74L132 71.5L133 77H125V73.5Z" fill="#AA0000"/>
<path d="M116.025 82.6877C115.945 83.1916 116.061 83.707 116.349 84.1283C116.637 84.5496 117.075 84.8449 117.573 84.9539C118.072 85.0628 118.593 84.9771 119.03 84.7143C119.467 84.4514 119.788 84.0314 119.926 83.5401L119.926 82.5C119.837 82.8151 118.941 83.9309 118.661 84.0995C118.38 84.2681 118.046 84.323 117.726 84.2532C117.406 84.1833 117.185 83.2702 117 83C117 82.5 117 81 117 80L116.025 82.6877Z" fill="#AA0000"/>
<path d="M100.506 113.741C101.506 115.241 99.6103 117.241 98.5057 117.241C97.4011 117.241 96.2493 116.501 96.0057 113.241C95.8382 111.001 99.4233 104.098 99.9233 105.098C98.8382 107.501 99.3382 111.99 100.506 113.741Z" fill="#AA0000"/>
<path d="M95.625 104.625C96.1675 104.625 96.8811 104.544 97.316 104.906C97.4079 104.983 97.741 105.118 97.875 105.125C98.1119 105.138 98.2119 105.425 98.4375 105.437C98.6595 105.45 98.7002 105.709 98.9444 105.587C99.1285 105.495 99.3771 105.207 99.2431 104.972C99.1883 104.876 98.814 104.664 99.0139 104.792C99.1279 104.865 99.2736 105 99.375 105.09C99.5839 105.277 99.9366 105.167 100.194 105.111C100.774 104.985 101.417 104.698 101.872 104.309C102.1 104.114 102.24 103.902 102.406 103.66C102.494 103.531 102.741 103.198 102.431 103.556C101.925 104.136 101.13 105.503 100.111 105.111C99.9423 105.046 99.8266 104.785 99.6528 104.753C99.4961 104.725 99.3151 104.75 99.1562 104.75C99.0336 104.75 98.7248 104.788 99.0139 104.743C99.475 104.672 100.016 104.448 100.424 104.215C100.658 104.081 100.909 104.216 101.125 104" stroke="#AA0000" stroke-linecap="round"/>
<path d="M105 101.5C106 102.5 101.5 107.5 99 105.5C97.067 105.5 94 108.5 91 105C91 103.895 97.067 101.5 99 101.5C100.933 101.5 105 100.395 105 101.5Z" fill="#AA0000"/>
<path d="M102.006 114.249C102.006 115.63 100.386 117.249 99.0057 117.249C97.625 117.249 97.0057 115.63 97.0057 114.249C97.0057 112.869 97.125 107.749 98.5057 107.749C98.5057 109.749 102.006 112.249 102.006 114.249Z" fill="#AA0000"/>
<path d="M138.5 89C139 94 136 101.5 134 97.5C133.5 96 132.5 94.5 134 89C133.5 85 137.395 75 138.5 75C139.605 75 135 85 138.5 89Z" fill="#AA0000"/>
<path d="M131.026 88.871C131.045 88.5633 131.136 88.2643 131.291 87.9975C131.445 87.7307 131.659 87.5033 131.916 87.3329C132.173 87.1626 132.466 87.054 132.772 87.0156C133.078 86.9772 134.159 85.8985 134.451 86C134.742 86.1016 134.235 87.3807 134.451 87.601C134.666 87.8214 134.828 88.0886 134.923 88.3819C135.019 88.6751 135.045 88.9864 135 89.2915C134.955 89.5965 134.84 89.8871 134.664 90.1404L133.784 91C133.414 90.875 134.021 89 133.928 88.871C133.952 88.7083 133.978 88.6564 133.928 88.5C133.877 88.3436 133.899 88.3713 133.784 88.2538C133.669 88.1362 133.677 88.1649 133.521 88.1108C133.366 88.0566 133.294 88.0903 133.131 88.1108C132.968 88.1313 132.768 88.1629 132.631 88.2538C132.494 88.3446 132.271 88.528 132.189 88.6703C132.106 88.8126 131.011 89.3359 131 89.5L131.026 88.871Z" fill="#AA0000"/>
<path d="M88 97.6875L96.1951 96L109 97.6875V99.375L105.415 102.188L88 105V97.6875Z" fill="#AA0000"/>
<path d="M117 85L119 84L121 81L123.5 78L125.5 75L132 73.5L131 67.5H136.5L137.5 75.5L135.5 94L134 87.5L124.5 91.5L114.5 97L112.5 95L109.5 97L109 92.5L117 85Z" fill="#AA0000"/>
<path d="M115.416 83.2774L113.5 86.5L111.416 89.2774" stroke="#AA0000"/>
</svg>
