<svg width="154" height="151" viewBox="0 0 154 151" fill="none" xmlns="http://www.w3.org/2000/svg">
<g clip-path="url(#clip0_9_69)">
<path fill-rule="evenodd" clip-rule="evenodd" d="M113.916 55.9688C120.041 71.052 114.26 92.0918 98.3052 107.832C82.3507 123.572 61.1297 129.172 45.986 122.987L46.7611 122.222C52.3014 124.394 58.6843 124.97 65.3516 124.003C76.2859 122.417 87.9126 116.68 97.598 107.125C107.284 97.5695 113.138 86.0602 114.808 75.2105C115.827 68.5947 115.289 62.251 113.141 56.7335L113.916 55.9688ZM31.1475 106.548C29.0311 101.053 28.506 94.7463 29.5185 88.1703C31.1891 77.3206 37.0434 65.8112 46.7288 56.2558C56.4143 46.7003 68.041 40.9633 78.9753 39.3774C85.6026 38.4161 91.9488 38.9803 97.4659 41.1195L98.2422 40.3536C83.105 34.2326 61.9416 39.8425 46.0217 55.5487C30.1019 71.2548 24.3111 92.2374 30.3712 107.314L31.1475 106.548Z" fill="#BF67E9"/>
<path fill-rule="evenodd" clip-rule="evenodd" d="M82.4045 55.3172C71.5119 53.679 57.3272 59.1283 45.8878 70.4142C34.4484 81.7001 28.8664 95.7521 30.442 106.582L31.3388 105.697C31.0053 102.745 31.2071 99.5368 31.9342 96.1881C33.7366 87.8873 38.7511 78.8599 46.5949 71.1213C54.4387 63.3828 63.561 58.4632 71.9301 56.7291C75.3063 56.0295 78.5375 55.8507 81.5077 56.2019L82.4045 55.3172ZM47.4931 121.852C50.4634 122.203 53.6945 122.024 57.0706 121.325C65.4397 119.59 74.562 114.671 82.4058 106.932C90.2497 99.1937 95.2641 90.1663 97.0665 81.8655C97.7936 78.5169 97.9954 75.3088 97.662 72.3563L98.5587 71.4715C100.134 82.3016 94.5523 96.3535 83.1129 107.639C71.6735 118.925 57.489 124.375 46.5964 122.736L47.4931 121.852Z" fill="#BF67E9"/>
<path fill-rule="evenodd" clip-rule="evenodd" d="M118.474 16.6934C92.745 -0.113522 56.7647 3.5779 32.8092 27.2118C8.85372 50.8458 4.89424 86.558 21.6408 112.227L22.3694 111.508C6.02951 86.2655 9.9284 51.1903 33.5163 27.919C57.1043 4.64764 92.4429 1.01209 117.746 17.4121L118.474 16.6934ZM37.9869 127.919C63.4173 146.257 100.348 143.18 124.726 119.129C149.105 95.0775 152.452 58.4175 134.162 33.035L134.883 32.3231C153.587 58.1293 150.176 95.4253 125.433 119.836C100.691 144.247 63.1195 147.382 37.2653 128.631L37.9869 127.919Z" fill="#BF67E9"/>
<path fill-rule="evenodd" clip-rule="evenodd" d="M110.175 29.1111C90.2854 16.9819 60.8828 22.0549 40.0654 42.5928C19.248 63.1308 13.9421 92.3004 26.0189 112.138L26.7548 111.412C15.1436 92.0521 20.2539 63.5431 40.7725 43.2999C61.2911 23.0568 90.0272 18.1736 109.439 29.8372L110.175 29.1111ZM40.8814 125.347C60.285 136.654 88.7252 131.687 109.079 111.607C129.433 91.5258 134.625 63.3113 123.373 43.9624L124.112 43.2337C135.826 63.0598 130.442 91.9357 109.786 112.314C89.131 132.692 60.0236 137.845 40.1427 126.076L40.8814 125.347Z" fill="#BF67E9"/>
<path fill-rule="evenodd" clip-rule="evenodd" d="M56.568 123.588C44.5771 135.418 34.974 132.399 27.216 124.641C19.4579 116.883 16.4826 107.324 28.4736 95.494C41.2679 85.6619 66.4401 70.5309 74.1982 78.289C81.9563 86.047 67.6254 109.191 56.568 123.588ZM52.7762 109.19C50.0242 111.906 45.592 111.905 42.8767 109.19C40.1614 106.475 40.1911 102.072 42.9431 99.3574C45.6951 96.6423 50.1273 96.6425 52.8426 99.3579C55.5579 102.073 55.5282 106.475 52.7762 109.19ZM39.9533 123.237L28.7156 111.999L26.58 114.106L37.8178 125.343L39.9533 123.237ZM36.6042 94.9789C34.5701 96.5553 33.1461 98.9438 33.6964 102.36C33.959 103.992 33.8511 105.183 33.5404 106.044C33.2333 106.896 32.7196 107.45 32.1119 107.804C31.1364 108.374 29.8745 108.451 28.7803 108.298C28.6726 108.107 28.5291 107.888 28.3696 107.645C28.0976 107.231 27.7792 106.745 27.5128 106.209C26.9199 105.015 25.63 105.276 25.0403 105.858C24.4506 106.439 24.6014 107.54 25.3772 108.316C26.0282 108.967 27.5715 109.514 28.4718 109.259C29.7474 109.464 31.3332 109.415 32.6202 108.664C33.4265 108.193 34.097 107.456 34.485 106.381C34.8694 105.315 34.9673 103.943 34.6871 102.203C34.1801 99.0548 35.5514 96.9463 37.5112 95.5493C39.4991 94.1323 42.0796 93.4667 43.85 93.2967L43.8388 93.1813L41.6968 93.4849L39.9403 93.8332L38.236 94.1713L36.6042 94.9789ZM50.0416 118.706C53.4775 119.275 55.8918 117.877 57.4927 115.867L58.3167 114.252L58.6686 112.562L59.0312 110.819L59.3512 108.694L59.2351 108.682C59.0521 110.439 58.3646 112.998 56.9245 114.963C55.5048 116.9 53.3728 118.247 50.2067 117.723C48.4568 117.433 47.0751 117.521 45.9995 117.895C44.9141 118.273 44.1678 118.934 43.6886 119.732C42.9237 121.005 42.8629 122.58 43.0613 123.848C42.798 124.741 43.3388 126.277 43.9898 126.928C44.7656 127.704 45.8726 127.861 46.4623 127.28C47.052 126.698 47.3232 125.418 46.1253 124.821C45.587 124.553 45.1006 124.234 44.6851 123.961C44.4413 123.801 44.222 123.657 44.0309 123.548C43.8836 122.461 43.9705 121.208 44.5503 120.243C44.9114 119.641 45.4723 119.135 46.3316 118.836C47.2007 118.533 48.4012 118.434 50.0416 118.706Z" fill="black"/>
<rect width="5.95973" height="57.9987" transform="matrix(0.707107 0.707107 -0.711868 0.702313 104.124 44.5785)" fill="black"/>
<path d="M118.005 32.3929C119.436 32.5363 120.566 33.6655 120.7 35.088L120.939 37.6145C121.024 38.5046 120.702 39.3854 120.064 40.0155L112.332 47.6436C111.871 48.0986 111.274 48.3931 110.63 48.483L107.368 48.9384C105.378 49.2163 103.678 47.5161 103.971 45.5413L104.452 42.3049C104.547 41.6661 104.847 41.075 105.308 40.6199L113.04 32.9919C113.679 32.3618 114.568 32.0487 115.463 32.1384L118.005 32.3929Z" fill="black"/>
<path fill-rule="evenodd" clip-rule="evenodd" d="M111.639 33.0025C111.338 33.1349 111.08 33.1497 110.945 33.0152C110.694 32.7645 110.969 32.0895 111.559 31.5077C112.149 30.9259 112.83 30.6576 113.081 30.9083C113.215 31.0428 113.198 31.2992 113.063 31.5979L114.768 33.3026L113.344 34.7073L111.639 33.0025Z" fill="black"/>
<path fill-rule="evenodd" clip-rule="evenodd" d="M108.88 34.4851C108.578 34.6175 108.32 34.6323 108.185 34.4978C107.934 34.2471 108.209 33.5721 108.799 32.9903C109.389 32.4085 110.07 32.1402 110.321 32.3909C110.455 32.5254 110.439 32.7818 110.303 33.0805L112.008 34.7852L110.584 36.1899L108.88 34.4851Z" fill="black"/>
<path fill-rule="evenodd" clip-rule="evenodd" d="M104.608 38.6989C104.307 38.8312 104.049 38.8461 103.914 38.7116C103.663 38.4608 103.938 37.7859 104.528 37.2041C105.118 36.6223 105.799 36.3539 106.05 36.6047C106.184 36.7392 106.167 36.9956 106.032 37.2942L107.737 38.999L106.313 40.4037L104.608 38.6989Z" fill="black"/>
<path fill-rule="evenodd" clip-rule="evenodd" d="M107.368 37.2163C107.067 37.3486 106.808 37.3634 106.674 37.229C106.423 36.9782 106.698 36.3033 107.288 35.7215C107.877 35.1397 108.559 34.8713 108.81 35.1221C108.944 35.2566 108.927 35.513 108.792 35.8116L110.497 37.5164L109.073 38.9211L107.368 37.2163Z" fill="black"/>
<path fill-rule="evenodd" clip-rule="evenodd" d="M120.044 41.4067C119.908 41.7053 119.892 41.9617 120.026 42.0962C120.277 42.347 120.958 42.0786 121.548 41.4968C122.138 40.915 122.412 40.2401 122.162 39.9893C122.027 39.8548 121.769 39.8696 121.467 40.002L119.763 38.2973L118.339 39.7019L120.044 41.4067Z" fill="black"/>
<path fill-rule="evenodd" clip-rule="evenodd" d="M115.772 45.6204C115.637 45.9191 115.621 46.1755 115.755 46.31C116.006 46.5608 116.687 46.2924 117.277 45.7106C117.867 45.1288 118.141 44.4539 117.891 44.2031C117.756 44.0686 117.498 44.0834 117.196 44.2158L115.491 42.511L114.068 43.9156L115.772 45.6204Z" fill="black"/>
<path fill-rule="evenodd" clip-rule="evenodd" d="M118.532 44.1379C118.397 44.4365 118.38 44.693 118.515 44.8275C118.766 45.0782 119.447 44.8099 120.037 44.2281C120.626 43.6463 120.901 42.9713 120.65 42.7206C120.516 42.5861 120.258 42.6009 119.956 42.7333L118.251 41.0285L116.828 42.4331L118.532 44.1379Z" fill="black"/>
<path fill-rule="evenodd" clip-rule="evenodd" d="M114.261 48.3516C114.126 48.6503 114.109 48.9067 114.244 49.0412C114.495 49.292 115.176 49.0236 115.766 48.4418C116.355 47.86 116.63 47.1851 116.379 46.9343C116.245 46.7998 115.987 46.8146 115.685 46.947L113.98 45.2422L112.556 46.6468L114.261 48.3516Z" fill="black"/>
<path fill-rule="evenodd" clip-rule="evenodd" d="M38.43 66.0567C38.3887 65.784 38.1338 65.5978 37.8608 65.641C37.5878 65.6841 37.3999 65.9402 37.4412 66.2129C37.4589 66.3296 37.4783 66.4442 37.5001 66.557C37.4566 66.6308 37.4314 66.7166 37.4307 66.8082L37.3376 80.5997C36.9459 80.4577 36.4776 80.4361 35.9875 80.5657C34.7754 80.8862 33.8883 82.0097 34.0061 83.0751C34.1239 84.1405 35.202 84.7444 36.4142 84.4238C37.6263 84.1033 38.5134 82.9798 38.3956 81.9144C38.3836 81.8062 38.3617 81.7027 38.3308 81.6045L38.392 72.5442L38.4348 72.498C38.602 71.4112 39.1994 70.6045 39.9051 70.6045C40.7335 70.6045 41.3976 71.7163 41.3883 73.0877C41.3874 73.2287 41.3793 73.3669 41.3648 73.5015C41.3772 73.69 41.383 73.8835 41.3816 74.0809C41.3747 75.1033 41.1781 76.0227 40.8706 76.6587L40.8692 76.6825C40.8619 76.8024 40.8559 76.9062 40.8539 76.9765C40.8531 77.0042 40.8517 77.056 40.8565 77.1042C40.8578 77.118 40.8609 77.1448 40.8684 77.177L40.8688 77.1786C40.8727 77.1957 40.8948 77.2926 40.9717 77.3851C40.9941 77.4119 41.0271 77.4454 41.0716 77.4762C41.7447 76.3913 41.9877 74.9251 41.9489 73.4144C41.9183 72.2238 41.7137 71.0642 41.4511 70.1425C40.9504 69.5993 40.4342 69.222 40.1592 69.0211C40.0729 68.958 40.0104 68.9123 39.9796 68.8843C39.4336 68.3881 39.0944 67.9562 38.8687 67.5234C38.6431 67.091 38.5169 66.631 38.43 66.0567Z" fill="#B451E3"/>
<path fill-rule="evenodd" clip-rule="evenodd" d="M96.4904 57.1203C96.4491 56.8475 96.1942 56.6614 95.9212 56.7045C95.6482 56.7476 95.4603 57.0037 95.5016 57.2764C95.5192 57.3931 95.5387 57.5077 95.5605 57.6205C95.517 57.6943 95.4918 57.7802 95.4911 57.8718L95.4537 63.4128L95.4537 63.4184L95.398 71.6633C95.0063 71.5213 94.538 71.4997 94.0479 71.6293C92.8358 71.9498 91.9487 73.0733 92.0665 74.1387C92.1843 75.2041 93.2625 75.808 94.4746 75.4874C95.6867 75.1669 96.5738 74.0434 96.456 72.978C96.444 72.8698 96.4221 72.7663 96.3912 72.6681L96.4524 63.6077L96.4952 63.5616C96.6624 62.4747 97.2598 61.6679 97.9655 61.668C98.7939 61.668 99.458 62.7798 99.4487 64.1512C99.4478 64.2922 99.4398 64.4304 99.4252 64.565C99.4376 64.7534 99.4434 64.947 99.442 65.1444C99.4351 66.1668 99.2385 67.0862 98.931 67.7222L98.9296 67.746C98.9223 67.866 98.9163 67.9698 98.9143 68.0401C98.9135 68.0677 98.9121 68.1195 98.9169 68.1678C98.9182 68.1815 98.9213 68.2083 98.9288 68.2405L98.9292 68.2421C98.9331 68.2593 98.9551 68.3562 99.0321 68.4486C99.0545 68.4754 99.0875 68.509 99.132 68.5398C99.8051 67.4549 100.048 65.9886 100.009 64.478C99.9787 63.2873 99.7741 62.1277 99.5115 61.206C99.0108 60.6628 98.4946 60.2855 98.2196 60.0846C98.1333 60.0215 98.0708 59.9759 98.04 59.9479C97.494 59.4517 97.1548 59.0197 96.9291 58.587C96.7035 58.1545 96.5773 57.6945 96.4904 57.1203Z" fill="#B451E3"/>
<path fill-rule="evenodd" clip-rule="evenodd" d="M63.0797 118.764C63.1108 118.836 63.1329 118.913 63.145 118.992C63.2648 119.778 62.3796 120.607 61.1681 120.843C59.9565 121.079 58.8773 120.634 58.7576 119.848C58.6379 119.063 59.523 118.234 60.7346 117.998C61.2245 117.902 61.6928 117.918 62.0847 118.023L62.1534 107.852C62.1553 107.576 62.3807 107.352 62.6568 107.352C62.933 107.352 63.1553 107.576 63.1534 107.852L63.0797 118.764Z" fill="#B451E3"/>
<path fill-rule="evenodd" clip-rule="evenodd" d="M106.657 33.3467C106.688 33.4192 106.71 33.4955 106.722 33.5753C106.842 34.361 105.957 35.1895 104.745 35.4258C103.534 35.6622 102.455 35.2169 102.335 34.4312C102.215 33.6455 103.1 32.817 104.312 32.5807C104.802 32.4851 105.27 32.501 105.662 32.6058L105.731 22.4351C105.732 22.159 105.958 21.9352 106.234 21.9352C106.51 21.9352 106.732 22.159 106.731 22.4352L106.657 33.3467Z" fill="#B451E3"/>
<path fill-rule="evenodd" clip-rule="evenodd" d="M124.744 42.7843L124.731 44.7941L124.711 47.6744L124.695 50.0937C124.746 50.1589 124.781 50.2321 124.794 50.312C124.864 50.7172 124.375 51.1409 123.702 51.2585C123.03 51.3761 122.429 51.1429 122.36 50.7377C122.291 50.3326 122.78 49.9088 123.452 49.7912C123.535 49.7767 123.617 49.7675 123.697 49.7634L123.73 44.8933L118.727 45.3897L118.687 51.2148C118.7 51.2457 118.709 51.2778 118.715 51.3111C118.73 51.3975 118.719 51.485 118.685 51.5702L118.684 51.6472L118.648 51.6472C118.489 51.9299 118.088 52.1763 117.589 52.2635C116.898 52.3844 116.282 52.1539 116.213 51.7487C116.144 51.3435 116.648 50.9171 117.339 50.7963C117.459 50.7752 117.577 50.7648 117.69 50.7642L117.711 47.6741L117.711 47.6741L117.74 43.4792L124.744 42.7843Z" fill="#B451E3"/>
<path fill-rule="evenodd" clip-rule="evenodd" d="M83.537 57.6809L83.5042 62.5334L83.5168 62.5334L83.5005 64.9374C83.5445 64.9975 83.5739 65.0642 83.5863 65.1364C83.6546 65.5363 83.1718 65.9545 82.508 66.0705C81.8442 66.1865 81.2507 65.9564 81.1824 65.5566C81.1141 65.1567 81.5968 64.7385 82.2606 64.6225C82.3427 64.6081 82.4237 64.5991 82.5028 64.595L82.5353 59.7887L77.6075 60.2773L77.5684 66.0609C77.5749 66.0809 77.58 66.1014 77.5836 66.1224C77.5961 66.1956 77.5896 66.2695 77.5665 66.3421L77.5658 66.4539L77.5174 66.4539C77.3607 66.733 76.9644 66.9762 76.4718 67.0623C75.7895 67.1816 75.181 66.9541 75.1126 66.5543C75.0443 66.1544 75.5421 65.7336 76.2244 65.6143C76.3432 65.5935 76.4598 65.5833 76.5716 65.5826L76.5922 62.5331L76.63 62.5331L76.6581 58.363L83.537 57.6809Z" fill="#B451E3"/>
</g>
<path d="M149.396 75.4942C149.396 115.375 117.063 147.734 77.1434 147.734C37.2234 147.734 4.89048 115.375 4.89048 75.4942C4.89049 35.6133 37.2235 3.25477 77.1435 3.25477C117.063 3.25477 149.396 35.6133 149.396 75.4942Z" stroke="black" stroke-width="5"/>
<defs>
<clipPath id="clip0_9_69">
<rect width="150" height="149" fill="white" transform="translate(2.0002 1.05798)"/>
</clipPath>
</defs>
</svg>
