<svg width="259" height="297" viewBox="0 0 259 297" fill="none" xmlns="http://www.w3.org/2000/svg">
<path fill-rule="evenodd" clip-rule="evenodd" d="M137 0L119 20.5L123 47.5L109.5 64.8132L86 77.2088L77.3692 70.7701L76.2391 53L72.082 73.5491L80 80.3736L57 92.5055L52 87L37 95L0 57L17.8852 123L31.3852 116L34 124L39 121.5V156.045L29.5 160.5L13 153.079L29.5 166.5L39 163.045V205.5L28.0084 194.144L1 233.24L29.5928 219.115L41.0675 231.659L64.7846 220.077L78.3175 226.677L76.8957 237.928L62 248.145L82.0277 241.021L84.305 229.598L100.348 237.5L122 270L136.5 260.5L127.791 296.266L159.5 249.552H134.897L163 235.5L171.957 242.39L173.087 260.16L177.244 239.611L169 232.5L190.5 221.75L215.171 233.659L226.646 221.115L255.239 235.24L228.23 196.144L219 206.5V162.5L228.369 158.064L244.869 165.485L228.369 152.064L219 155.5V121L225 124L227.615 116L241.115 123L259 57L222 95L207 87L201.5 92.5L176.5 79.0389L177.837 67.4278L192.733 57.2109L172.705 64.3351L170.428 75.7583L150.853 65.2464L132 25L137 0ZM81.0122 133.673L127.79 66.0073C128.718 64.6642 130.698 64.6642 131.626 66.0073L178.404 133.673C179.2 134.823 178.818 136.412 177.587 137.073L130.809 162.174C130.121 162.544 129.295 162.544 128.607 162.174L81.8294 137.073C80.5988 136.412 80.2169 134.823 81.0122 133.673ZM46.3689 155.527L74.3499 142.768C75.0308 142.457 75.8188 142.493 76.4691 142.863L125.609 170.874C126.339 171.29 126.79 172.068 126.79 172.91V236.653C126.79 238.752 124.252 239.791 122.788 238.292L45.6672 159.298C44.5339 158.137 44.8945 156.2 46.3689 155.527ZM123.289 66.16L74.004 134.8C73.7929 135.094 73.5167 135.335 73.1971 135.504L53.1535 146.087C50.81 147.325 48.5484 144.311 50.3819 142.394L123.289 66.16ZM213.631 154.942L185.65 142.182C184.969 141.872 184.181 141.907 183.531 142.278L134.391 170.289C133.661 170.705 133.21 171.482 133.21 172.325V236.068C133.21 238.166 135.748 239.206 137.212 237.707L214.333 158.713C215.466 157.552 215.105 155.614 213.631 154.942ZM136.711 65.5745L185.996 134.215C186.207 134.509 186.483 134.75 186.803 134.918L206.846 145.502C209.19 146.739 211.452 143.725 209.618 141.808L136.711 65.5745Z" fill="#FF6F00"/>
<path d="M133.984 136.792C131.84 138.648 130.224 139.576 129.136 139.576C128.048 139.576 126.432 138.648 124.288 136.792C122.144 134.936 120.816 133.432 120.304 132.28C119.952 131.608 119.776 129.512 119.776 125.992V120.136C119.776 116.776 119.984 114.6 120.4 113.608C120.848 112.616 122.144 111.192 124.288 109.336C126.432 107.48 128.048 106.552 129.136 106.552C130.224 106.552 131.824 107.48 133.936 109.336C136.048 111.192 137.392 112.696 137.968 113.848C138.32 114.584 138.496 116.68 138.496 120.136V125.992C138.496 129.352 138.272 131.528 137.824 132.52C137.408 133.512 136.128 134.936 133.984 136.792ZM127.696 132.616C128.272 133.096 128.752 133.336 129.136 133.336C129.52 133.336 129.984 133.096 130.528 132.616C131.104 132.136 131.504 131.704 131.728 131.32C131.952 130.904 132.064 129.128 132.064 125.992V120.136C132.064 117.48 131.968 115.832 131.776 115.192C131.616 114.552 131.232 113.992 130.624 113.512C130.048 113.032 129.552 112.792 129.136 112.792C128.752 112.792 128.256 113.032 127.648 113.512C127.072 113.992 126.688 114.488 126.496 115C126.304 115.48 126.208 117.192 126.208 120.136V125.992C126.208 129.096 126.32 130.856 126.544 131.272C126.768 131.688 127.152 132.136 127.696 132.616Z" fill="#FF6F00"/>
</svg>
